<svg version="1.1" id="Layer_1" xmlns="http://www.w3.org/2000/svg" xmlns:xlink="http://www.w3.org/1999/xlink" x="0px" y="0px"
	 width="100%" viewBox="0 0 624 544" enable-background="new 0 0 624 544" xml:space="preserve">
<path fill="#000000" opacity="1.000000" stroke="none" 
	d="
M222.132965,489.993988 
	C181.041641,472.085175 147.939514,444.975555 122.883385,408.289825 
	C102.854889,378.965240 90.486649,346.686279 85.381699,311.388855 
	C81.610542,285.313751 82.510956,259.577515 87.662941,233.943573 
	C94.738350,198.739517 109.520752,166.952072 131.740295,138.736237 
	C153.842621,110.669250 181.028900,88.856171 213.259247,73.349442 
	C237.824844,61.530376 263.716614,54.353134 290.805695,51.975647 
	C351.244904,46.671146 405.721313,62.777401 453.403168,100.051720 
	C494.197144,131.941605 520.902527,173.497757 533.872803,223.798599 
	C539.449341,245.425507 542.120239,267.403839 540.872437,289.606293 
	C537.950806,341.589294 520.263123,387.939209 486.232697,427.736542 
	C462.996246,454.910706 435.075775,475.800964 402.233826,489.897980 
	C376.614349,500.894867 349.810852,507.119598 321.888580,508.269562 
	C287.390045,509.690369 254.309616,503.368164 222.132965,489.993988 
M475.583191,165.891159 
	C471.709595,160.532394 468.061920,154.984589 463.259644,150.601883 
	C461.093445,151.071701 460.207520,152.605072 459.061737,153.749207 
	C426.637604,186.126480 394.207672,218.498077 361.881226,250.972717 
	C359.239746,253.626312 356.678528,254.411804 353.007355,253.934219 
	C343.237030,252.663208 333.416351,252.785797 323.615540,253.934875 
	C321.903900,254.135544 320.057953,254.929153 318.466980,253.412369 
	C318.549255,251.212738 320.297455,250.262985 321.541748,249.023682 
	C360.580872,210.141541 399.625427,171.264786 438.723969,132.442459 
	C441.294922,129.889648 441.623260,128.193100 438.493744,125.717430 
	C391.711090,88.708794 338.860016,73.800438 279.856354,83.256279 
	C234.418930,90.538010 195.810974,111.379784 164.879028,145.643539 
	C126.670074,187.968124 109.350166,237.812897 113.245682,294.674164 
	C116.095444,336.270905 131.479767,373.117706 157.557388,405.584961 
	C160.011215,408.640045 161.740616,408.867157 164.625153,405.932068 
	C178.870956,391.436859 193.267349,377.088379 207.712067,362.790619 
	C213.330444,357.229401 218.556229,351.221283 225.561844,345.720337 
	C229.040970,354.032928 234.725555,360.201508 238.708221,367.455566 
	C240.414948,370.564209 239.433533,373.299438 236.787903,375.909973 
	C219.720413,392.751099 202.797714,409.738953 185.821640,426.672791 
	C183.763214,428.726044 181.497131,430.373840 185.192123,433.335114 
	C208.114380,451.705780 233.485184,465.122650 262.026245,472.499207 
	C286.690979,478.873871 311.709106,480.505585 336.843109,477.267487 
	C364.017151,473.766571 389.587616,465.112152 413.266052,450.939545 
	C454.941406,425.994873 483.910065,390.567566 500.331543,345.105713 
	C509.700256,319.169006 513.365479,292.222229 510.966492,264.534363 
	C507.866089,228.751160 496.582184,195.976364 475.583191,165.891159 
z"/>
<path fill="#000000" opacity="1.000000" stroke="none" 
	d="
M239.519211,389.593079 
	C247.792603,387.446075 250.380997,383.639343 250.903671,375.760620 
	C251.574585,365.647491 249.361069,356.891968 242.753555,348.875305 
	C238.797821,344.075928 235.719070,338.338104 234.533463,331.938995 
	C233.805527,328.010132 231.237808,327.317108 227.591034,327.295227 
	C214.644272,327.217529 203.220612,323.443481 195.650452,312.104736 
	C187.130142,299.342865 187.847046,285.748749 193.988068,272.584473 
	C202.589493,254.145874 217.344376,242.625900 237.118240,237.737625 
	C240.011261,237.022461 240.850937,235.467896 240.790222,232.783249 
	C240.429657,216.841766 243.212341,201.279068 246.995331,185.909866 
	C249.985214,173.762863 253.904129,161.894852 261.402069,151.589706 
	C262.086761,150.648666 262.788422,149.711807 263.564148,148.846436 
	C270.216187,141.425491 276.763947,142.190430 281.071472,151.244629 
	C284.858063,159.203842 285.115204,168.012924 285.904327,176.595490 
	C286.499176,183.065414 285.950256,189.578781 284.784973,196.007080 
	C284.401855,198.120560 284.061340,200.254486 284.784515,203.181427 
	C289.001160,197.938126 292.763123,192.988174 296.811005,188.284302 
	C304.885956,178.900787 313.462036,170.039734 324.995483,164.816742 
	C334.761139,160.394287 340.496033,164.445770 340.048004,175.300797 
	C339.661469,184.666473 336.339233,193.237732 332.378662,201.490097 
	C321.978973,223.159225 308.596375,242.715164 290.273926,258.563019 
	C288.032318,260.501862 287.293091,262.332916 287.810303,265.455566 
	C288.469055,269.432709 287.969849,273.601654 287.969849,278.807220 
	C295.136993,275.394196 300.775177,271.901001 307.027069,269.701019 
	C324.796570,263.448090 342.710022,261.252472 361.484863,264.900818 
	C380.244476,268.546295 397.113342,275.705444 411.592224,288.156372 
	C421.975647,297.085449 430.135376,307.728333 434.560944,320.865601 
	C435.866028,324.739685 437.881836,326.461914 442.231140,327.093292 
	C453.431366,328.719269 460.949890,339.474945 460.254211,351.663116 
	C459.610809,362.936310 450.104523,372.590942 438.291351,372.933502 
	C433.410461,373.075012 430.863617,375.058624 428.342194,378.760498 
	C411.622314,403.307861 387.431976,414.923767 358.598145,414.901581 
	C336.516052,414.884613 308.046326,395.266174 302.203125,367.723267 
	C299.381500,354.423187 301.949524,341.570770 309.083923,329.810455 
	C310.118500,328.105042 311.152924,326.399506 312.272278,324.554199 
	C300.603790,329.523376 289.042389,354.443817 294.330780,375.092773 
	C299.494354,395.254486 313.102051,407.391754 332.743439,413.242798 
	C331.296173,415.741150 329.825378,415.324799 328.585968,415.325256 
	C298.593781,415.336517 268.601410,415.361176 238.609528,415.256287 
	C232.472839,415.234802 227.277710,410.751678 226.045166,405.022522 
	C224.962067,399.988007 227.959549,393.919006 232.867752,391.103363 
	C234.818771,389.984100 236.931015,389.683136 239.519211,389.593079 
M231.160110,278.592865 
	C235.240952,279.410248 238.538589,278.458832 239.636200,274.046692 
	C240.499756,270.575439 238.400238,268.380524 235.447968,267.049011 
	C232.272232,265.616760 229.838715,267.206299 228.282501,269.729553 
	C226.205032,273.097992 227.304703,276.047394 231.160110,278.592865 
z"/>
</svg>