<svg version="1.1" id="Layer_1" xmlns="http://www.w3.org/2000/svg" xmlns:xlink="http://www.w3.org/1999/xlink" x="0px" y="0px"
	 width="100%" viewBox="0 0 704 656" enable-background="new 0 0 704 656" xml:space="preserve">
<path fill="#000000" opacity="1.000000" stroke="none" 
	d="
M519.097229,337.117798 
	C541.708069,337.328522 562.111267,343.275818 581.235413,354.634796 
	C598.416992,364.839996 616.086365,374.239990 633.720825,383.657745 
	C639.958252,386.988892 642.332031,391.527710 642.309387,398.502380 
	C642.140625,450.501160 642.222107,502.500732 642.223206,554.500061 
	C642.223206,555.833252 642.267334,557.170837 642.178650,558.498901 
	C641.720154,565.366821 637.472656,569.208496 630.595825,568.463135 
	C616.314392,566.915161 602.014343,566.541260 587.681213,567.242859 
	C553.982361,568.892395 521.784424,576.842651 491.572510,591.773987 
	C462.986755,605.901733 433.021423,614.447754 401.336182,617.455811 
	C359.191833,621.456726 318.329346,616.192017 278.665619,601.348328 
	C259.491150,594.172485 242.128754,583.655273 224.820709,572.966309 
	C176.339417,543.025635 127.817451,513.150879 79.301506,483.266327 
	C59.718594,471.203766 52.419594,449.565094 61.624832,429.811707 
	C66.690079,418.942261 74.674004,410.293945 85.126678,404.614532 
	C92.429558,400.646576 98.250771,395.835266 103.382164,389.206543 
	C113.020248,376.756073 126.614731,370.641815 142.125885,368.815704 
	C144.371689,368.551300 146.196945,367.965118 147.962097,366.474182 
	C168.565781,349.070923 194.034149,346.645660 217.141434,360.077515 
	C237.883896,372.134674 258.482391,384.439545 279.140900,396.641083 
	C290.474091,403.334839 301.783630,410.068787 313.135651,416.730499 
	C319.619751,420.535583 322.491028,419.214569 323.804901,411.921234 
	C327.847839,389.478882 330.428406,366.864899 331.813446,344.106384 
	C332.448975,333.663452 333.219971,323.228760 333.987640,311.936249 
	C325.617493,312.574463 317.915833,313.335327 310.195404,313.722137 
	C260.866882,316.193604 213.971252,309.396210 174.330582,276.633118 
	C151.208145,257.522400 136.277710,232.748901 126.613037,204.639404 
	C118.434738,180.853043 114.714035,156.295090 113.502541,131.196609 
	C112.671700,113.983932 113.665573,96.952415 115.634010,79.905678 
	C116.232071,74.726395 119.085342,71.421486 124.089378,70.814552 
	C174.236603,64.732277 223.265228,68.333221 269.701782,89.841446 
	C306.927979,107.083672 333.040802,135.115311 347.433960,173.758133 
	C347.956268,175.160446 348.549927,176.536896 349.140686,177.912369 
	C349.266632,178.205643 349.524658,178.442200 350.142700,179.265442 
	C351.351349,176.281433 352.459015,173.614624 353.515717,170.927765 
	C371.248444,125.839417 404.621735,97.527039 449.537781,81.803474 
	C473.436554,73.437340 498.189117,69.694557 523.467407,68.542412 
	C540.676758,67.758026 557.740234,68.436356 574.774231,70.689949 
	C580.375183,71.430954 583.616577,74.297951 584.194153,79.426277 
	C589.427490,125.893936 587.139282,171.665970 569.102417,215.433258 
	C546.173218,271.072235 503.873230,302.147186 444.848663,311.444946 
	C419.615326,315.419769 394.408691,314.732574 369.154388,312.043793 
	C368.508301,311.975006 367.848480,312.035065 366.270294,312.035065 
	C367.001648,340.273407 369.582184,368.205475 373.503906,396.426666 
	C378.792572,395.003723 382.491089,392.099365 386.459991,389.803772 
	C401.456696,381.129761 415.235016,370.513397 430.636932,362.446014 
	C458.271027,347.971497 487.156128,338.085938 519.097229,337.117798 
M387.939270,487.357391 
	C395.583527,484.500702 403.217163,481.615173 410.875305,478.796234 
	C417.339691,476.416687 423.003723,478.223053 424.939667,483.198639 
	C427.072784,488.681000 424.699738,493.304626 418.233704,496.220490 
	C417.171906,496.699310 416.077515,497.107147 414.991547,497.530792 
	C385.614319,508.992432 355.562988,518.230835 324.555603,524.057678 
	C303.955750,527.928772 283.291779,531.758179 262.182678,531.264771 
	C252.393311,531.036011 242.963959,528.937988 234.624405,523.536316 
	C218.366516,513.005737 210.991974,491.207611 217.113052,471.945099 
	C218.135925,468.726288 218.848907,466.433777 215.013077,464.159607 
	C190.509537,449.631775 166.236252,434.716125 141.762024,420.138245 
	C123.478485,409.247833 99.490555,413.171783 85.063278,428.791565 
	C72.175003,442.745117 75.753265,459.089569 90.308029,467.876404 
	C138.230301,496.807709 185.716904,526.461365 233.330154,555.903381 
	C250.911743,566.775085 268.486145,577.590515 288.069031,584.682617 
	C323.058533,597.354431 359.043610,601.931396 396.115326,598.895752 
	C424.967529,596.533325 452.644073,589.831299 478.605835,576.945557 
	C497.657593,567.489319 517.426819,560.233154 538.098145,555.347961 
	C564.676025,549.067017 591.546509,546.099854 618.847229,548.485229 
	C623.187988,548.864502 622.905823,546.233215 622.906311,543.490967 
	C622.914124,496.993073 622.887207,450.495148 622.984558,403.997437 
	C622.991821,400.519409 621.730835,398.602509 618.711792,396.963745 
	C602.898987,388.380493 586.950134,380.005463 571.520386,370.769745 
	C552.523254,359.398682 532.172119,354.633423 510.307312,356.515350 
	C490.371002,358.231323 471.567230,364.288513 453.312164,372.368774 
	C434.448181,380.718536 417.752502,392.648773 400.413269,403.536194 
	C372.947205,420.782349 343.687927,433.774445 311.672882,439.790741 
	C299.262329,442.122925 286.525574,442.812836 274.194305,445.451355 
	C255.702759,449.407990 241.291840,459.240540 235.199570,478.112976 
	C229.935699,494.419281 240.493591,509.617920 257.359772,511.887329 
	C265.777527,513.019958 274.024811,512.369568 282.242798,511.442078 
	C318.092712,507.395844 353.083344,499.409851 387.939270,487.357391 
M229.542633,170.957184 
	C265.620300,206.997238 301.697998,243.037277 338.457153,279.758087 
	C341.780396,253.865967 341.340820,229.331924 336.530609,205.001434 
	C327.416595,158.901871 302.250519,125.018829 258.969391,105.645485 
	C219.943527,88.176872 178.738770,85.087502 136.701996,88.303368 
	C134.113708,88.501381 133.444672,89.925171 133.261032,92.239342 
	C130.321854,129.279327 132.711212,165.772141 145.409485,201.002243 
	C160.055237,241.635437 186.571335,270.874969 228.020218,285.455444 
	C256.595581,295.507385 286.121704,296.009521 315.851166,294.387360 
	C318.449432,294.245605 321.372101,294.341949 324.172668,292.795166 
	C323.249115,291.732910 322.648621,290.950897 321.957123,290.259918 
	C280.827576,249.159546 239.688034,208.069153 198.564758,166.962494 
	C197.156464,165.554779 195.697739,164.126175 194.616959,162.475281 
	C191.062775,157.046280 193.400986,150.429306 199.515518,148.313507 
	C203.943756,146.781174 207.328568,148.856979 210.290466,151.751282 
	C216.604828,157.921539 222.804779,164.208878 229.542633,170.957184 
M401.252472,266.752472 
	C392.665039,275.337524 384.077637,283.922607 375.490204,292.507690 
	C400.440033,295.672546 424.510559,296.242279 448.431610,291.624847 
	C487.205719,284.140350 518.848694,265.581085 539.839478,231.306732 
	C564.521851,191.004715 569.402222,146.347824 567.165039,100.409203 
	C566.571655,88.223221 565.816833,87.948570 553.031067,87.455444 
	C520.201599,86.189247 487.744690,88.580467 456.429169,99.425766 
	C415.508392,113.597588 385.288422,139.301559 370.102875,180.817383 
	C360.917725,205.928741 358.530304,232.050278 359.611938,258.506500 
	C359.883179,265.140625 359.257385,272.087250 362.353241,280.503357 
	C364.544556,277.665924 365.861145,275.517639 367.592743,273.783783 
	C410.457489,230.863235 453.364532,187.984879 496.272278,145.107269 
	C498.151611,143.229309 499.903076,141.187851 502.395020,140.033279 
	C506.526123,138.119232 510.888794,139.028564 513.599670,142.587402 
	C516.458557,146.340530 516.568848,150.283707 513.727600,154.099243 
	C512.642090,155.556946 511.226410,156.773376 509.930786,158.069366 
	C473.875916,194.134933 437.817139,230.196640 401.252472,266.752472 
M142.775375,399.540710 
	C152.429001,403.390106 160.824081,409.480621 169.672165,414.748260 
	C188.110565,425.725464 206.438065,436.888885 224.817337,447.965515 
	C226.634689,449.060791 228.393051,450.651184 230.628738,448.641937 
	C234.676865,445.003784 238.768433,441.413940 242.847885,437.798615 
	C241.867035,436.141327 240.188049,435.653412 238.793427,434.832458 
	C220.300140,423.946655 201.784454,413.098907 183.272446,402.244934 
	C177.819061,399.047485 172.418427,395.754395 166.891418,392.689392 
	C153.458389,385.240143 136.236252,386.016357 126.343147,394.600616 
	C131.690353,396.179932 136.873398,397.710724 142.775375,399.540710 
M174.385040,372.882568 
	C172.122711,375.446991 175.189697,375.407501 176.103821,375.946686 
	C204.339844,392.602814 232.623199,409.178741 260.908447,425.751343 
	C262.475555,426.669464 264.051361,427.914124 265.974304,427.585480 
	C272.784485,426.421448 279.571320,425.120789 286.503265,423.846832 
	C286.143402,423.248383 286.046234,422.858582 285.803589,422.715546 
	C258.712952,406.741730 231.706345,390.621674 204.457870,374.921387 
	C195.241440,369.610992 185.103180,369.471252 174.385040,372.882568 
M346.645599,387.998901 
	C345.674957,395.336700 344.704315,402.674500 343.714233,410.159241 
	C346.694397,410.127106 348.669159,408.713654 350.877960,408.100983 
	C354.584412,407.072906 355.757111,405.178772 354.981720,401.163147 
	C353.755554,394.812958 353.326355,388.309723 352.538330,381.873901 
	C351.737488,375.333160 350.910492,368.795654 350.094971,362.256714 
	C349.955841,362.293030 349.816711,362.329315 349.677582,362.365631 
	C348.743469,370.623444 347.809326,378.881256 346.645599,387.998901 
z"/>
</svg>