<svg width="40" height="31" viewBox="0 0 40 31" fill="none" xmlns="http://www.w3.org/2000/svg">
<g clip-path="url(#clip0_977_1592)">
<path d="M7.27156 30.8441V28.7923C7.27156 28.0057 6.79125 27.4928 5.96797 27.4928C5.55641 27.4928 5.11047 27.6296 4.80172 28.0742C4.56172 27.698 4.21875 27.4928 3.70422 27.4928C3.36109 27.4928 3.01828 27.5953 2.74375 27.9715V27.5612H2.02344V30.8441H2.74375V29.0316C2.74375 28.4504 3.0525 28.1767 3.53281 28.1767C4.01281 28.1767 4.25313 28.4845 4.25313 29.0316V30.8441H4.97344V29.0316C4.97344 28.4504 5.31625 28.1767 5.76219 28.1767C6.2425 28.1767 6.4825 28.4845 6.4825 29.0316V30.8441H7.27156ZM17.9389 27.5612H16.7728V26.5695H16.0525V27.5612H15.4008V28.2108H16.0523V29.7156C16.0523 30.4681 16.3611 30.9125 17.1844 30.9125C17.4931 30.9125 17.8359 30.81 18.0763 30.6732L17.8703 30.0576C17.6645 30.1944 17.4245 30.2286 17.253 30.2286C16.91 30.2286 16.7728 30.0235 16.7728 29.6814V28.2108H17.9389V27.5612ZM24.0445 27.4927C23.633 27.4927 23.3586 27.698 23.187 27.9715V27.5612H22.4667V30.8441H23.187V28.9975C23.187 28.4504 23.427 28.1426 23.873 28.1426C24.0102 28.1426 24.1817 28.1769 24.3189 28.211L24.5247 27.5271C24.3875 27.4928 24.1817 27.4928 24.0445 27.4928V27.4927ZM14.8177 27.8348C14.4745 27.5953 13.9944 27.4928 13.4798 27.4928C12.6567 27.4928 12.108 27.9032 12.108 28.5529C12.108 29.1002 12.5195 29.4078 13.2398 29.5105L13.5828 29.5448C13.9602 29.613 14.1659 29.7156 14.1659 29.8867C14.1659 30.126 13.8916 30.297 13.4113 30.297C12.9311 30.297 12.5537 30.126 12.3136 29.9551L11.9706 30.5022C12.348 30.7757 12.8625 30.9125 13.3769 30.9125C14.3373 30.9125 14.8863 30.4681 14.8863 29.8524C14.8863 29.2711 14.4403 28.9632 13.7542 28.8607L13.4113 28.8265C13.1025 28.7922 12.8625 28.724 12.8625 28.5188C12.8625 28.2794 13.1025 28.1426 13.4798 28.1426C13.8916 28.1426 14.3031 28.3135 14.5089 28.4161L14.8177 27.8348ZM33.9575 27.4928C33.5458 27.4928 33.2714 27.698 33.0998 27.9715V27.5612H32.3795V30.8441H33.0998V28.9975C33.0998 28.4504 33.34 28.1426 33.7858 28.1426C33.9231 28.1426 34.0947 28.1769 34.2319 28.211L34.4377 27.5271C34.3005 27.4928 34.0947 27.4928 33.9575 27.4928ZM24.7648 29.2027C24.7648 30.1944 25.4508 30.9125 26.5142 30.9125C26.9944 30.9125 27.3373 30.81 27.6803 30.5364L27.3373 29.9551C27.063 30.1602 26.7886 30.2627 26.4798 30.2627C25.8967 30.2627 25.4852 29.8524 25.4852 29.2027C25.4852 28.5872 25.8967 28.1767 26.4798 28.1426C26.7886 28.1426 27.063 28.2451 27.3373 28.4504L27.6803 27.869C27.3373 27.5953 26.9944 27.4928 26.5142 27.4928C25.4508 27.4928 24.7648 28.211 24.7648 29.2027ZM31.4192 29.2027V27.5612H30.6989V27.9715C30.4588 27.6639 30.1158 27.4928 29.6698 27.4928C28.7438 27.4928 28.0234 28.211 28.0234 29.2027C28.0234 30.1944 28.7438 30.9125 29.6698 30.9125C30.15 30.9125 30.4931 30.7416 30.6989 30.4338V30.8441H31.4192V29.2027ZM28.778 29.2027C28.778 28.6213 29.1553 28.1426 29.7727 28.1426C30.3558 28.1426 30.7675 28.5872 30.7675 29.2027C30.7675 29.784 30.3558 30.2627 29.7727 30.2627C29.1553 30.2285 28.778 29.784 28.778 29.2027ZM20.1686 27.4928C19.2081 27.4928 18.522 28.1767 18.522 29.2027C18.522 30.2286 19.208 30.9125 20.2028 30.9125C20.683 30.9125 21.1633 30.7757 21.5406 30.4681L21.1975 29.9551C20.9231 30.1602 20.5802 30.297 20.2372 30.297C19.7913 30.297 19.3453 30.0919 19.2423 29.5103H21.6778V29.2369C21.7122 28.1767 21.0948 27.4928 20.1686 27.4928ZM20.1686 28.1083C20.6144 28.1083 20.9233 28.382 20.9917 28.895H19.2767C19.3453 28.4504 19.6541 28.1083 20.1686 28.1083ZM38.0392 29.2027V26.2617H37.3189V27.9715C37.0788 27.6639 36.7358 27.4928 36.2898 27.4928C35.3638 27.4928 34.6434 28.211 34.6434 29.2027C34.6434 30.1944 35.3638 30.9125 36.2898 30.9125C36.7702 30.9125 37.1131 30.7416 37.3189 30.4338V30.8441H38.0392V29.2027ZM35.3981 29.2027C35.3981 28.6213 35.7753 28.1426 36.3928 28.1426C36.9759 28.1426 37.3875 28.5872 37.3875 29.2027C37.3875 29.784 36.9759 30.2627 36.3928 30.2627C35.7753 30.2285 35.3981 29.784 35.3981 29.2027ZM11.3189 29.2027V27.5612H10.5986V27.9715C10.3584 27.6639 10.0155 27.4928 9.56953 27.4928C8.64344 27.4928 7.92312 28.211 7.92312 29.2027C7.92312 30.1944 8.64344 30.9125 9.56953 30.9125C10.0498 30.9125 10.3928 30.7416 10.5986 30.4338V30.8441H11.3189V29.2027ZM8.64344 29.2027C8.64344 28.6213 9.02078 28.1426 9.63813 28.1426C10.2213 28.1426 10.633 28.5872 10.633 29.2027C10.633 29.784 10.2213 30.2627 9.63813 30.2627C9.02078 30.2285 8.64344 29.784 8.64344 29.2027Z" fill="black"/>
<path d="M14.5781 2.63281H25.3828V21.9885H14.5781V2.63281Z" fill="#FF5F00"/>
<path d="M15.2639 12.3111C15.2639 8.37841 17.1161 4.89021 19.963 2.63313C17.8708 0.991688 15.2297 0 12.3484 0C5.52234 0 0 5.50569 0 12.3111C0 19.1163 5.52234 24.6221 12.3483 24.6221C15.2295 24.6221 17.8706 23.6304 19.963 21.9888C17.1161 19.766 15.2639 16.2437 15.2639 12.3111Z" fill="#EB001B"/>
<path d="M39.961 12.3111C39.961 19.1163 34.4387 24.6221 27.6127 24.6221C24.7315 24.6221 22.0904 23.6304 19.998 21.9888C22.8793 19.7319 24.6973 16.2437 24.6973 12.3111C24.6973 8.37841 22.8449 4.89021 19.998 2.63313C22.0902 0.991688 24.7315 0 27.6127 0C34.4387 0 39.961 5.53997 39.961 12.3111Z" fill="#F79E1B"/>
</g>
<defs>
<clipPath id="clip0_977_1592">
<rect width="40" height="31" fill="white"/>
</clipPath>
</defs>
</svg>
