<svg width="40" height="47" viewBox="0 0 40 47" fill="none" xmlns="http://www.w3.org/2000/svg">
<g clip-path="url(#clip0_977_1587)">
<path d="M33.9329 3.66029C31.7557 1.18859 27.8201 0.128906 22.7852 0.128906H8.17274C7.67459 0.128925 7.19279 0.305941 6.81395 0.628129C6.43511 0.950317 6.1841 1.39654 6.10602 1.88658L0.0216484 40.3218C-0.0992891 41.0798 0.48993 41.7661 1.26118 41.7661H10.2824L12.5481 27.4527L12.4777 27.9009C12.6391 26.8892 13.5079 26.1429 14.5366 26.1429H18.8235C27.2451 26.1429 33.8393 22.7359 35.7656 12.8801C35.8227 12.5886 35.8723 12.3049 35.9151 12.0277C35.672 11.8994 35.672 11.8994 35.9151 12.0277C36.4887 8.38488 35.9112 5.90524 33.9329 3.66029Z" fill="#27346A"/>
<path d="M15.9999 10.7154C16.2466 10.5985 16.5163 10.5378 16.7895 10.538H28.2454C29.602 10.538 30.8673 10.6259 32.0235 10.8113C32.3471 10.8627 32.6689 10.924 32.9887 10.9952C33.4419 11.0948 33.8898 11.2168 34.3309 11.3605C34.8993 11.5496 35.4287 11.7698 35.9152 12.0277C36.4887 8.38348 35.9112 5.90524 33.9329 3.66029C31.7545 1.18859 27.8201 0.128906 22.7852 0.128906H8.17149C7.14259 0.128906 6.26727 0.874992 6.10602 1.88658L0.0216493 40.3204C-0.0992882 41.0796 0.489931 41.765 1.25993 41.765H10.2824L14.9829 12.0756C15.0291 11.7838 15.1458 11.5075 15.323 11.2706C15.5002 11.0336 15.7325 10.8431 15.9999 10.7154Z" fill="#27346A"/>
<path d="M35.7645 12.8797C33.8382 22.7342 27.2442 26.1426 18.8225 26.1426H14.5343C13.5056 26.1426 12.6367 26.8888 12.4768 27.9006L9.65824 45.6976C9.55292 46.3608 10.0679 46.9619 10.7417 46.9619H18.3464C18.782 46.9618 19.2033 46.8069 19.5345 46.525C19.8656 46.2431 20.085 45.8528 20.1531 45.4243L20.2271 45.0383L21.6604 35.9906L21.7528 35.4906C21.8208 35.0621 22.0402 34.6718 22.3713 34.3899C22.7025 34.1081 23.1237 33.9532 23.5593 33.953H24.6975C32.0642 33.953 37.8325 30.9721 39.5181 22.3508C40.2217 18.748 39.8576 15.74 37.9964 13.6272C37.4318 12.9873 36.7307 12.4587 35.914 12.0273C35.8698 12.3059 35.8218 12.5882 35.7645 12.8797Z" fill="#2790C3"/>
<path d="M33.8987 11.2244C33.5983 11.1371 33.2951 11.0597 32.9896 10.9926C32.6697 10.9225 32.3479 10.8616 32.0245 10.8098C30.867 10.6232 29.6026 10.5352 28.2448 10.5352H16.7902C16.5169 10.5345 16.2469 10.5957 16.0007 10.714C15.7329 10.8413 15.5004 11.0317 15.3231 11.2687C15.1459 11.5057 15.0293 11.7822 14.9835 12.0742L12.5488 27.45L12.4785 27.8982C12.6387 26.8865 13.5074 26.1403 14.5363 26.1403H18.8245C27.246 26.1403 33.8401 22.7332 35.7663 12.8774C35.8237 12.5859 35.8718 12.3034 35.916 12.025C35.4282 11.7685 34.9002 11.5469 34.3316 11.3591C34.1882 11.3117 34.0439 11.2668 33.8988 11.2244" fill="#1F264F"/>
</g>
<defs>
<clipPath id="clip0_977_1587">
<rect width="40" height="47" fill="white"/>
</clipPath>
</defs>
</svg>
