<svg width="151" height="58" viewBox="0 0 151 58" fill="none" xmlns="http://www.w3.org/2000/svg">
<path d="M17.56 10.68C15.1333 9.74667 12.84 9.28 10.68 9.28C8.54667 9.28 6.88 9.73333 5.68 10.64C4.48 11.5467 3.88 12.8 3.88 14.4C3.88 16.3467 4.89333 17.8533 6.92 18.92C7.82667 19.3733 8.81333 19.8 9.88 20.2C10.9733 20.5733 12.0667 21 13.16 21.48C14.2533 21.96 15.2533 22.5067 16.16 23.12C17.0667 23.7333 17.8 24.5867 18.36 25.68C18.92 26.7467 19.2 28.12 19.2 29.8C19.2 31.4533 18.7333 32.8667 17.8 34.04C16.8667 35.2133 15.7333 36.0133 14.4 36.44C13.0933 36.84 11.56 37.04 9.8 37.04C6.52 37.04 3.72 36.2267 1.4 34.6L1.6 34.28C2.48 34.9733 3.61333 35.5467 5 36C6.41333 36.4267 7.85333 36.64 9.32 36.64C11.48 36.64 13.32 36.1467 14.84 35.16C16.3867 34.1467 17.16 32.6667 17.16 30.72C17.16 28.5867 16.1467 26.92 14.12 25.72C13.2133 25.1867 12.2133 24.6933 11.12 24.24C10.0533 23.7867 8.97333 23.32 7.88 22.84C6.78667 22.3333 5.78667 21.7733 4.88 21.16C2.85333 19.8267 1.84 17.9333 1.84 15.48C1.84 13.5333 2.49333 11.96 3.8 10.76C5.10667 9.53333 7.06667 8.92 9.68 8.92C12.32 8.92 15 9.37333 17.72 10.28L17.56 10.68ZM26.7059 9V26.68L39.6259 9L39.9459 9.28L32.7859 19.04L43.4259 37H39.7059L30.7459 21.84L26.7059 27.4V37H23.3859V9H26.7059ZM47.4094 9.4V9H54.5294V9.4H52.5694V36.6H54.5294V37H47.4094V36.6H49.2494V9.4H47.4094ZM60.4638 37H59.9438V9H61.3038L77.9438 34.88V9H78.4637V37H75.5438L60.4638 13.8V37ZM84.1747 37H83.6547V9H85.0147L101.655 34.88V9H102.175V37H99.2547L84.1747 13.8V37ZM123.486 9V9.4H110.886V21.4H122.566V21.8H110.886V36.6H124.366V37H107.566V9H123.486ZM131.781 9.04C132.955 8.98666 134.101 8.96 135.221 8.96C136.368 8.96 137.568 9.08 138.821 9.32C140.101 9.56 141.355 10.0133 142.581 10.68C143.835 11.32 144.888 12.16 145.741 13.2C146.621 14.2133 147.328 15.56 147.861 17.24C148.395 18.92 148.661 20.96 148.661 23.36C148.661 25.76 148.261 27.92 147.461 29.84C146.688 31.7333 145.621 33.1867 144.261 34.2C141.621 36.1733 138.435 37.16 134.701 37.16C133.395 37.16 132.021 37.1067 130.581 37H128.581V9.04H131.781ZM131.901 36.68C132.461 36.7333 133.168 36.76 134.021 36.76C134.875 36.76 135.515 36.7467 135.941 36.72C136.368 36.6933 136.955 36.5867 137.701 36.4C138.448 36.1867 139.141 35.9067 139.781 35.56C140.421 35.2133 141.088 34.7067 141.781 34.04C142.501 33.3467 143.115 32.5333 143.621 31.6C144.768 29.4133 145.341 26.56 145.341 23.04C145.341 20.5333 145.035 18.3733 144.421 16.56C143.808 14.72 143.101 13.36 142.301 12.48C141.528 11.6 140.581 10.9067 139.461 10.4C138.341 9.86666 137.448 9.56 136.781 9.48C136.115 9.4 135.341 9.36 134.461 9.36C133.581 9.36 132.728 9.4 131.901 9.48V36.68Z" fill="black"/>
<path d="M52.77 49.388C53.6207 49.3293 54.3723 49.3 55.025 49.3C56.8363 49.3 57.742 49.905 57.742 51.115C57.742 51.5697 57.61 51.962 57.346 52.292C57.082 52.6147 56.6603 52.8347 56.081 52.952C56.6383 53.018 57.0783 53.1867 57.401 53.458C57.7237 53.7293 57.885 54.2023 57.885 54.877C57.885 56.2923 56.9793 57 55.168 57H52.77V49.388ZM53.683 56.89H55.168C55.8207 56.89 56.2827 56.7213 56.554 56.384C56.8327 56.0393 56.972 55.515 56.972 54.811C56.972 54.107 56.8327 53.6377 56.554 53.403C56.2753 53.1683 55.861 53.0437 55.311 53.029H53.683V56.89ZM55.025 49.41C54.5997 49.41 54.1523 49.4357 53.683 49.487V52.919H55.311C56.345 52.875 56.862 52.281 56.862 51.137C56.862 50.5797 56.708 50.1543 56.4 49.861C56.092 49.5603 55.6337 49.41 55.025 49.41ZM63.5974 49.3C63.7368 49.4393 63.8064 49.619 63.8064 49.839C63.8064 50.0223 63.7661 50.2093 63.6854 50.4L61.7164 54.393V57H60.8034V54.635L58.6034 49.3H59.5384L61.6394 54.261L63.5534 50.4C63.6341 50.2167 63.6744 50.026 63.6744 49.828C63.6744 49.63 63.6194 49.476 63.5094 49.366L63.5974 49.3ZM68.2838 57H68.1408V49.3H68.5148L73.0908 56.417V49.3H73.2338V57H72.4308L68.2838 50.62V57ZM74.3009 57H74.1689L77.4579 49.3L77.5789 49.245L80.3509 57H79.4159L78.5579 54.58H75.3459L74.3009 57ZM77.1169 50.488L75.3899 54.47H78.5249L77.1169 50.488ZM83.0542 57H82.1412V49.41H80.2382V49.3H84.9682V49.41H83.0542V57ZM91.3618 49.3H91.5048V53.7C91.5048 54.8513 91.2774 55.6983 90.8228 56.241C90.3681 56.7763 89.7741 57.044 89.0408 57.044C88.5788 57.044 88.1864 57.0037 87.8638 56.923C87.5411 56.835 87.2368 56.6773 86.9508 56.45C86.3641 55.9953 86.0708 55.0787 86.0708 53.7V49.3H86.9838V53.689C86.9838 55.0237 87.1854 55.9147 87.5888 56.362C87.7941 56.582 88.0068 56.7323 88.2268 56.813C88.4541 56.8937 88.7254 56.934 89.0408 56.934C89.7448 56.934 90.3058 56.6773 90.7238 56.164C91.1491 55.6433 91.3618 54.8183 91.3618 53.689V49.3ZM92.8813 49.388C93.732 49.3293 94.4837 49.3 95.1363 49.3C96.9477 49.3 97.8533 49.905 97.8533 51.115C97.8533 51.6283 97.7287 52.0867 97.4793 52.49C97.23 52.8933 96.801 53.161 96.1923 53.293L98.3923 57H97.3693L95.2133 53.359H93.7943V57H92.8813V49.388ZM95.1363 49.41C94.711 49.41 94.2637 49.4357 93.7943 49.487V53.249H95.4223C96.4563 53.205 96.9733 52.501 96.9733 51.137C96.9733 50.5797 96.8193 50.1543 96.5113 49.861C96.2033 49.5603 95.745 49.41 95.1363 49.41ZM103.866 49.3V49.41H100.401V52.71H103.613V52.82H100.401V56.89H104.108V57H99.4878V49.3H103.866Z" fill="black"/>
</svg>
